HIERARCHY
ROOT __0
{
	OFFSET 0.0 0.0 0.0
	CHANNELS 0
	JOINT IKLegTarget.R
	{
		OFFSET 0.211553 -0.070982 0.073421
		CHANNELS 6 Xposition Yposition Zposition Xrotation Yrotation Zrotation
		End Site
		{
			OFFSET 0.000000 -0.191920 0.000000
		}
	}
	JOINT IKLPole.R
	{
		OFFSET 0.192917 0.630369 0.778434
		CHANNELS 6 Xposition Yposition Zposition Xrotation Yrotation Zrotation
		End Site
		{
			OFFSET -0.000000 0.288052 -0.000000
		}
	}
	JOINT hip
	{
		OFFSET 0.000000 0.000000 1.000000
		CHANNELS 6 Xposition Yposition Zposition Xrotation Yrotation Zrotation
		JOINT spine
		{
			OFFSET 0.000000 0.010257 0.185956
			CHANNELS 3 Xrotation Yrotation Zrotation
			JOINT spine.001
			{
				OFFSET 0.000000 -0.047000 0.404963
				CHANNELS 3 Xrotation Yrotation Zrotation
				JOINT Head
				{
					OFFSET 0.000000 0.038275 0.295777
					CHANNELS 3 Xrotation Yrotation Zrotation
					End Site
					{
						OFFSET 0.000000 0.000000 0.485327
					}
				}
				JOINT shoulder.R
				{
					OFFSET 0.195757 0.038275 0.182789
					CHANNELS 6 Xposition Yposition Zposition Xrotation Yrotation Zrotation
					JOINT upperArm.R
					{
						OFFSET 0.172586 -0.021106 0.000001
						CHANNELS 3 Xrotation Yrotation Zrotation
						JOINT lowArm.R
						{
							OFFSET 0.286341 -0.054438 -0.003392
							CHANNELS 3 Xrotation Yrotation Zrotation
							JOINT hand.R
							{
								OFFSET 0.285593 0.049479 0.003392
								CHANNELS 3 Xrotation Yrotation Zrotation
								JOINT finger.R
								{
									OFFSET 0.076868 -0.012608 0.000000
									CHANNELS 3 Xrotation Yrotation Zrotation
									End Site
									{
										OFFSET 0.068083 0.000000 0.000000
									}
								}
								JOINT thump.R
								{
									OFFSET 0.040973 0.013192 0.000000
									CHANNELS 6 Xposition Yposition Zposition Xrotation Yrotation Zrotation
									End Site
									{
										OFFSET 0.000000 0.101950 0.000000
									}
								}
							}
						}
					}
				}
				JOINT shoulder.L
				{
					OFFSET -0.195757 0.038275 0.182789
					CHANNELS 6 Xposition Yposition Zposition Xrotation Yrotation Zrotation
					JOINT upperArm.L
					{
						OFFSET -0.172586 -0.021106 0.000001
						CHANNELS 3 Xrotation Yrotation Zrotation
						JOINT lowArm.L
						{
							OFFSET -0.286341 -0.054438 -0.003392
							CHANNELS 3 Xrotation Yrotation Zrotation
							JOINT hand.L
							{
								OFFSET -0.285593 0.049479 0.003392
								CHANNELS 3 Xrotation Yrotation Zrotation
								JOINT finger.L
								{
									OFFSET -0.076868 -0.012608 0.000000
									CHANNELS 3 Xrotation Yrotation Zrotation
									End Site
									{
										OFFSET -0.068083 0.000000 0.000000
									}
								}
								JOINT thump.L
								{
									OFFSET -0.040973 0.013192 0.000000
									CHANNELS 6 Xposition Yposition Zposition Xrotation Yrotation Zrotation
									End Site
									{
										OFFSET 0.000000 0.101950 0.000000
									}
								}
							}
						}
					}
				}
			}
		}
		JOINT upperLeg.R
		{
			OFFSET 0.154966 -0.029210 -0.029855
			CHANNELS 6 Xposition Yposition Zposition Xrotation Yrotation Zrotation
			JOINT lowerLeg.R
			{
				OFFSET 0.037951 0.070906 -0.543962
				CHANNELS 3 Xrotation Yrotation Zrotation
				JOINT foot.R
				{
					OFFSET 0.018636 -0.071669 -0.366804
					CHANNELS 3 Xrotation Yrotation Zrotation
					End Site
					{
						OFFSET 0.004380 0.218937 -0.029225
					}
				}
			}
		}
		JOINT upperLeg.L
		{
			OFFSET -0.154966 -0.029210 -0.029855
			CHANNELS 6 Xposition Yposition Zposition Xrotation Yrotation Zrotation
			JOINT lowerLeg.L
			{
				OFFSET -0.037951 0.070906 -0.543962
				CHANNELS 3 Xrotation Yrotation Zrotation
				JOINT foot.L
				{
					OFFSET -0.018636 -0.071669 -0.366804
					CHANNELS 3 Xrotation Yrotation Zrotation
					End Site
					{
						OFFSET -0.004380 0.218937 -0.029225
					}
				}
			}
		}
	}
	JOINT IKArmPole.R
	{
		OFFSET 0.654684 -0.353783 1.770317
		CHANNELS 6 Xposition Yposition Zposition Xrotation Yrotation Zrotation
		End Site
		{
			OFFSET 0.000000 -0.396997 0.000000
		}
	}
	JOINT IKarmTarget.R
	{
		OFFSET 0.940277 -0.024532 1.773709
		CHANNELS 6 Xposition Yposition Zposition Xrotation Yrotation Zrotation
		End Site
		{
			OFFSET 0.113585 0.000000 0.000000
		}
	}
	JOINT IKLegTarget.L
	{
		OFFSET -0.211553 -0.070982 0.073421
		CHANNELS 6 Xposition Yposition Zposition Xrotation Yrotation Zrotation
		End Site
		{
			OFFSET 0.000000 -0.191920 0.000000
		}
	}
	JOINT IKLPole.L
	{
		OFFSET -0.192917 0.630369 0.778434
		CHANNELS 6 Xposition Yposition Zposition Xrotation Yrotation Zrotation
		End Site
		{
			OFFSET 0.000000 0.288052 -0.000000
		}
	}
	JOINT IKArmPole.L
	{
		OFFSET -0.654684 -0.353783 1.770317
		CHANNELS 6 Xposition Yposition Zposition Xrotation Yrotation Zrotation
		End Site
		{
			OFFSET 0.000000 -0.396997 0.000000
		}
	}
	JOINT IKarmTarget.L
	{
		OFFSET -0.940277 -0.024532 1.773709
		CHANNELS 6 Xposition Yposition Zposition Xrotation Yrotation Zrotation
		End Site
		{
			OFFSET -0.113585 0.000000 0.000000
		}
	}
}
MOTION
Frames: 8
Frame Time: 0.041667
0.207943 -0.836506 0.804972 -155.367023 -0.000000 -0.000000 0.137589 0.786712 0.798397 0.000000 0.000000 0.000000 -0.011745 -0.008646 1.033141 -20.359339 0.000000 -0.000000 -1.143538 0.000000 -0.000000 -16.778990 13.109941 -12.443237 18.766703 0.466673 -2.086728 0.195757 0.038275 0.182789 1.757473 -9.095652 44.696348 -114.171461 -74.072165 -52.542323 0.639489 -2.123850 34.504217 140.267592 12.661392 29.323853 0.000001 -0.000003 -0.000002 0.040974 0.013192 -0.000000 -0.000001 0.000004 -0.000003 -0.195757 0.038275 0.182789 11.259862 -20.094394 58.181778 -54.184686 -12.683066 -32.687585 0.388382 1.692244 -26.843550 18.714431 -41.182489 -44.390079 0.000000 -0.000000 -0.000001 -0.040973 0.013192 -0.000000 0.000000 -0.000000 -0.000000 0.154966 -0.029210 -0.029855 -39.869136 -4.322515 -5.688542 -37.163513 4.576417 -1.214373 -57.762657 6.757566 -3.044207 -0.154966 -0.029210 -0.029855 80.541372 0.074636 -0.178803 -25.782245 -1.806378 1.218449 9.761639 -61.000918 16.974326 0.654684 -0.353783 2.137393 -0.000000 0.000000 -0.000000 0.215606 0.745323 1.450951 -75.598187 35.720571 145.409263 -0.211778 0.608787 0.462839 43.953285 -62.892580 13.782263 -0.192917 0.630369 1.145510 0.000000 0.000000 -0.000000 -0.654684 -0.353783 2.137393 -0.000000 0.000000 -0.000000 -0.574715 -0.083182 1.505378 -7.474453 -99.695456 -5.011154 
0.216167 -0.729261 0.622617 -147.744382 -0.226633 0.049986 0.187639 0.786712 0.485317 0.000000 0.000000 0.000000 -0.004585 0.019531 0.965854 -15.782766 -0.000001 -0.000000 -4.234608 0.691673 -0.021296 -16.778988 13.109944 -12.443239 18.772249 0.599880 -2.682775 0.195757 0.038275 0.182790 0.508952 5.737887 34.692532 -13.867637 -0.340453 50.059276 0.601633 -2.066653 33.452525 32.809562 4.789499 -3.382484 -0.000004 -0.000003 0.000003 0.040973 0.013193 0.000000 -0.000006 -0.000000 0.000002 -0.195757 0.038275 0.182790 6.695996 -1.107166 39.072254 -74.981277 -39.277440 -56.089227 0.527244 1.947111 -31.293871 21.934398 -26.035240 -32.494512 -0.000000 -0.000001 -0.000001 -0.040973 0.013192 -0.000000 0.000000 -0.000001 -0.000001 0.154966 -0.029211 -0.029855 -31.661728 -4.945863 -4.271057 -46.190373 5.558135 -1.031357 -53.662546 6.316681 -4.313345 -0.154966 -0.029210 -0.029855 61.292745 0.784406 -0.608226 -33.707185 -2.451450 1.417601 7.203461 -33.049486 -0.105244 0.654684 -0.353783 2.137393 -0.000000 0.000000 -0.000000 0.381557 0.609464 1.197895 -65.617347 41.738757 106.866970 -0.211778 0.425402 0.241028 19.861307 -34.109234 -0.139454 -0.196929 0.697453 0.734124 0.000000 0.000000 -0.000000 -0.654684 -0.353783 2.137393 -0.000000 0.000000 -0.000000 -0.510138 0.042514 1.351752 29.098450 -98.744154 26.366557 
0.224391 -0.398589 0.347523 -121.807681 -0.252642 0.106289 0.237689 0.786712 0.172238 0.000000 0.000000 0.000000 0.002574 0.048407 0.911253 -11.206193 0.000000 -0.000000 -7.326055 1.185851 -0.004507 -16.778986 13.109944 -12.443240 18.779182 -0.732978 3.278697 0.195757 0.038275 0.182789 7.953319 19.767136 12.854585 -32.297280 5.415610 49.484857 0.138826 -1.042547 16.163231 11.366080 -1.107608 3.144987 0.000003 -0.000001 0.000001 0.040973 0.013192 0.000000 0.000005 -0.000004 0.000003 -0.195757 0.038275 0.182789 14.938063 17.721935 5.174182 -121.056497 -72.475650 -115.517514 0.198132 1.234026 -19.234716 14.946426 -14.934379 -30.841487 0.000000 -0.000000 0.000001 -0.040973 0.013192 0.000000 -0.000000 -0.000000 -0.000001 0.154966 -0.029210 -0.029855 -0.433565 -5.808015 -0.541549 -67.799511 7.690825 0.008217 -41.473021 4.530125 -7.042582 -0.154966 -0.029210 -0.029855 23.737054 0.860657 -0.035688 -20.500427 -1.394360 1.037092 6.753709 -3.829846 -2.166258 0.654684 -0.353783 2.137393 -0.000000 0.000000 -0.000000 0.527683 0.376036 1.023983 -55.821118 43.806904 72.984499 -0.211778 0.078846 0.019216 -1.021684 -4.081529 -1.508291 -0.200942 0.767704 0.322737 0.000000 0.000000 -0.000000 -0.654684 -0.353783 2.137393 -0.000000 0.000000 -0.000000 -0.445562 0.274226 1.198125 78.874649 -104.160945 66.217181 
0.224391 0.093652 0.239327 -65.848010 -0.244395 0.114411 0.236154 0.781350 0.205615 0.000000 0.000000 0.000000 0.002574 0.037608 0.911665 -11.206193 0.000000 -0.000000 -7.114092 1.184269 -0.006692 -16.778988 13.109945 -12.443239 18.772249 -0.599874 2.682775 0.195757 0.038275 0.182789 21.808574 18.278324 -17.513910 -50.077072 -10.393670 43.494935 1.208079 -2.784184 47.899820 12.417331 -5.402788 -2.314731 0.000000 -0.000001 0.000002 0.040973 0.013192 0.000000 0.000002 -0.000004 -0.000001 -0.195757 0.038275 0.182789 24.921255 15.395865 -20.835504 -95.650686 -97.954803 -77.133190 1.077877 2.658648 -45.124840 24.824509 -11.951374 -20.876444 0.000001 0.000000 -0.000003 -0.040973 0.013192 0.000000 0.000001 0.000001 -0.000003 0.154966 -0.029210 -0.029855 46.270621 -4.355817 3.284952 -72.390197 8.083048 0.328143 -27.799982 0.212729 -6.837585 -0.154966 -0.029211 -0.029855 7.300528 1.004116 0.812873 -20.944121 -1.428309 1.053778 13.793722 -4.129455 -1.518834 0.654684 -0.353783 2.137393 -0.000000 0.000000 -0.000000 0.527683 0.204691 1.116237 -55.821118 43.806904 72.984499 -0.211778 -0.183349 0.038604 -11.007449 -4.061574 -1.396815 -0.198769 0.773362 0.339049 0.000000 0.000000 -0.000000 -0.654684 -0.353783 2.137393 -0.000000 0.000000 -0.000000 -0.445562 0.445851 1.224306 100.046637 -103.951422 72.135670 
0.224391 0.384546 0.223870 -23.374509 -0.252642 0.106289 0.232039 0.766981 0.295065 0.000000 0.000000 0.000000 0.002574 0.026817 0.912235 -11.206193 0.000000 -0.000000 -6.545944 1.172962 -0.012444 -16.778990 13.109944 -12.443240 18.766698 -0.466673 2.086732 0.195757 0.038276 0.182789 28.154745 13.557287 -34.900757 -56.297114 -25.037716 24.476939 2.990682 -3.693177 78.986848 16.704201 -6.701173 -4.097441 0.000002 -0.000002 0.000001 0.040973 0.013192 -0.000000 0.000002 -0.000004 0.000002 -0.195757 0.038275 0.182789 30.566633 11.906228 -37.335067 -135.618091 -113.859014 -102.457455 2.196058 3.436541 -66.143839 39.996488 -10.480456 -15.227635 0.000001 0.000001 0.000001 -0.040974 0.013193 -0.000000 0.000001 0.000001 0.000000 0.154966 -0.029210 -0.029855 60.702405 -2.988920 2.406552 -48.595368 5.813480 -0.956632 -23.982444 -2.056318 -2.590056 -0.154966 -0.029211 -0.029855 -1.624050 1.281312 1.106165 -25.744827 -1.803402 1.217298 18.677796 -4.573463 -1.039354 0.654684 -0.353783 2.137393 -0.000000 0.000000 -0.000000 0.527683 0.091438 1.259513 -55.821118 43.806904 72.984499 -0.211778 -0.345107 0.101651 -19.950202 -4.081529 -1.508291 -0.192947 0.777768 0.382766 0.000000 0.000000 -0.000000 -0.654684 -0.353783 2.137393 -0.000000 0.000000 -0.000000 -0.445562 0.563731 1.310983 109.056777 -104.160945 66.217168 
0.224391 0.409192 0.276000 -18.790726 -0.254189 0.106396 0.226081 0.746179 0.424568 0.000000 0.000000 0.000000 0.002574 0.030566 0.951772 -11.206193 0.000000 -0.000000 -5.723226 1.142064 -0.020318 -16.778986 13.109944 -12.443239 18.762536 -0.333390 1.490587 0.195757 0.038275 0.182789 28.835563 13.629396 -37.493917 -62.741640 -19.686545 10.383838 3.209895 -3.730984 82.401342 15.937263 -8.624317 1.993585 -0.000000 0.000001 0.000001 0.040973 0.013192 0.000000 0.000000 0.000001 0.000003 -0.195757 0.038275 0.182789 33.565845 9.220251 -47.187291 -151.127525 -126.273327 -111.333183 3.482947 3.759558 -86.615910 48.860578 -11.424797 -6.700501 0.000000 0.000001 0.000001 -0.040973 0.013193 -0.000000 0.000000 0.000000 0.000000 0.154966 -0.029210 -0.029855 62.504653 -3.027927 2.286150 -48.558851 5.809626 -0.957846 -21.292252 -2.362023 -1.759702 -0.154966 -0.029210 -0.029855 -8.326144 1.505300 1.092985 -30.146068 -2.158212 1.339160 10.771452 -5.356401 1.436930 0.654684 -0.353783 2.137393 -0.000000 0.000000 -0.000000 0.527794 0.001070 1.326185 -54.273554 49.153764 67.210714 -0.211778 -0.445808 0.210615 -39.356769 -4.132271 -1.278724 -0.184517 0.781080 0.446056 0.000000 0.000000 -0.000000 -0.654684 -0.353783 2.137393 -0.000000 0.000000 -0.000000 -0.372237 0.665576 1.455762 95.393564 -117.451332 40.093781 
0.224391 0.414210 0.376108 -18.120745 -0.255728 0.106520 0.219019 0.721515 0.578102 0.000000 0.000000 0.000000 0.002574 0.037529 1.025198 -11.206193 0.000000 -0.000000 -4.747686 1.081742 -0.028458 -16.778988 13.109944 -12.443239 18.759760 -0.200055 0.894382 0.195757 0.038275 0.182790 29.338282 14.313079 -38.198813 -68.148609 -14.081863 13.314711 2.249920 -3.460367 67.047903 22.633784 -9.223329 5.277377 0.000000 -0.000001 -0.000000 0.040974 0.013192 0.000000 0.000001 0.000000 0.000001 -0.195757 0.038275 0.182789 35.053248 7.721567 -52.325099 -156.012107 -133.058451 -132.506927 3.992679 3.759250 -94.445452 53.620858 -8.686600 -1.179443 0.000001 0.000003 -0.000000 -0.040973 0.013193 0.000000 0.000000 0.000001 0.000000 0.154966 -0.029210 -0.029855 65.367854 -3.147260 2.883138 -53.840954 6.357667 -0.756781 -18.203383 -2.386441 -1.664480 -0.154966 -0.029210 -0.029855 -14.138642 1.588846 0.876954 -32.631758 -2.362390 1.395835 -7.834044 -7.615688 4.577329 0.654684 -0.353783 2.137393 -0.000000 0.000000 -0.000000 0.528578 -0.062862 1.347504 -48.168116 60.004592 52.446192 -0.211778 -0.515203 0.347512 -66.853810 -4.312602 -1.146839 -0.174523 0.783452 0.521092 0.000000 0.000000 -0.000000 -0.654684 -0.353783 2.137393 -0.000000 0.000000 -0.000000 -0.236062 0.742103 1.597885 90.426425 -136.218260 19.872977 
0.224391 0.428708 0.439772 -14.575029 -0.252642 0.106289 0.211587 0.695566 0.739647 0.000000 0.000000 0.000000 0.002574 0.041278 1.064735 -11.206193 0.000000 -0.000000 -3.721229 0.982240 -0.034648 -16.778986 13.109943 -12.443238 18.758375 -0.066686 0.298133 0.195757 0.038275 0.182789 29.719123 14.292960 -39.875071 -70.243933 -14.878952 16.957348 1.731748 -3.185854 58.039430 31.568677 -5.656689 3.139674 -0.000000 -0.000000 0.000001 0.040973 0.013192 -0.000000 0.000000 0.000001 -0.000000 -0.195757 0.038275 0.182789 35.507889 7.289379 -53.851588 -154.391194 -133.754693 -145.771332 3.702124 3.767943 -89.982989 51.671184 -10.817759 -0.726124 -0.000000 -0.000003 -0.000001 -0.040973 0.013192 -0.000000 -0.000001 -0.000005 -0.000001 0.154966 -0.029210 -0.029855 68.165486 -3.352508 2.862133 -56.822260 6.657793 -0.621187 -14.523431 -2.783713 -0.806010 -0.154966 -0.029211 -0.029854 -19.522386 1.998819 0.763705 -40.536049 -3.024700 1.516408 -22.384719 -10.245061 5.315719 0.654684 -0.353783 2.137393 -0.000000 0.000000 -0.000000 0.530706 -0.087116 1.361557 -39.953011 68.705549 36.862688 -0.211778 -0.580637 0.489293 -94.965222 -4.081529 -1.508291 -0.164008 0.785043 0.600042 0.000000 0.000000 -0.000000 -0.654684 -0.353783 2.137393 -0.000000 0.000000 -0.000000 -0.162737 0.772285 1.662004 92.115865 -146.662712 12.991344 
